<?xml version="1.0" standalone="no"?>
<!DOCTYPE svg PUBLIC "-//W3C//DTD SVG 20010904//EN"
 "http://www.w3.org/TR/2001/REC-SVG-20010904/DTD/svg10.dtd">
<svg version="1.0" xmlns="http://www.w3.org/2000/svg"
 width="1280.000000pt" height="800.000000pt" viewBox="0 0 1280.000000 800.000000"
 preserveAspectRatio="xMidYMid meet">
<metadata>
Created by potrace 1.15, written by Peter Selinger 2001-2017
</metadata>
<g transform="translate(0.000000,800.000000) scale(0.100000,-0.100000)"
fill="#000000" stroke="none">
<path d="M5092 7984 c-105 -28 -192 -104 -251 -221 -28 -57 -66 -207 -82 -328
-17 -128 -17 -634 0 -838 11 -132 11 -170 -3 -156 -2 2 -12 60 -21 129 -71
549 -281 923 -578 1028 -191 67 -390 14 -902 -238 -306 -151 -411 -233 -480
-375 -123 -251 -19 -504 279 -674 168 -96 375 -159 618 -187 171 -19 566 -14
713 10 82 13 106 14 94 1 -6 -5 -155 -28 -292 -45 -174 -21 -406 -40 -627 -50
-561 -26 -626 -36 -699 -109 l-37 -37 -44 33 c-25 18 -94 57 -155 87 -190 94
-377 143 -586 153 -343 16 -587 -102 -629 -303 -41 -197 139 -544 551 -1062
23 -29 39 -56 35 -60 -4 -3 -23 14 -43 38 -60 74 -263 272 -337 327 -153 113
-328 200 -463 228 -38 8 -113 15 -168 15 -224 -1 -361 -92 -638 -425 -210
-252 -281 -358 -323 -482 -21 -63 -25 -91 -22 -144 13 -179 152 -316 368 -365
109 -25 331 -23 482 5 285 51 668 213 951 402 49 33 92 57 95 54 7 -6 17 1
-123 -92 -233 -156 -469 -296 -773 -460 -243 -130 -336 -193 -375 -253 -25
-40 -28 -52 -25 -106 3 -48 11 -72 38 -115 247 -389 930 -596 1497 -454 148
37 270 102 357 189 111 110 147 203 147 374 0 189 -81 426 -236 688 -25 42
-43 79 -41 81 3 3 35 -28 73 -68 182 -194 254 -266 328 -326 91 -74 206 -144
276 -169 40 -15 83 -53 260 -230 117 -117 211 -215 209 -217 -3 -2 -66 -28
-140 -57 -474 -185 -718 -315 -857 -457 -55 -55 -63 -68 -63 -101 0 -97 142
-151 396 -152 251 0 719 69 1042 155 52 14 104 25 115 25 59 -1 -36 -29 -628
-185 -394 -104 -640 -180 -680 -211 -44 -33 -84 -87 -96 -127 -48 -169 342
-317 836 -317 317 0 696 74 923 180 l82 39 24 -38 c41 -64 173 -321 211 -411
77 -178 107 -272 101 -315 -40 -265 -47 -344 -53 -538 l-6 -219 -95 -141 c-52
-77 -96 -146 -98 -152 -6 -14 86 -61 94 -48 51 77 99 142 105 143 4 0 7 -22 7
-49 0 -27 3 -57 6 -65 5 -12 -6 -21 -40 -37 -25 -11 -46 -22 -46 -23 0 -2 17
0 38 5 52 12 52 12 52 -21 0 -30 1 -30 55 -30 l55 0 0 48 c0 44 2 49 30 59 33
12 37 5 19 -29 -7 -13 -9 -47 -4 -94 l7 -74 54 0 c51 0 54 1 54 25 0 19 9 31
31 43 124 67 283 218 380 359 l53 78 290 193 c402 266 662 474 996 799 187
181 179 176 710 453 646 337 1621 779 1830 829 208 51 419 134 780 306 118 56
226 105 240 109 33 8 34 9 -200 -130 -370 -221 -588 -390 -688 -537 -134 -194
-3 -321 368 -358 641 -64 1769 283 1770 545 0 34 12 24 -230 188 -107 72 -229
156 -270 186 -91 67 -203 163 -196 169 2 3 60 -31 128 -75 187 -121 312 -177
483 -216 173 -41 449 -45 640 -11 194 35 393 119 515 218 134 109 187 284 141
462 -25 94 -114 278 -145 298 -96 62 -307 66 -556 11 -216 -49 -549 -166 -823
-290 -67 -31 -147 -67 -177 -81 -114 -51 -28 0 185 110 433 224 746 402 880
502 189 140 256 283 157 334 -230 117 -753 71 -1291 -114 -325 -111 -527 -228
-582 -337 -25 -48 -26 -129 -4 -183 15 -34 52 -92 188 -293 16 -24 27 -45 25
-47 -2 -2 -48 39 -103 92 -55 53 -118 104 -140 114 -164 73 -547 20 -841 -115
-42 -20 -78 -36 -80 -36 -2 0 12 20 31 45 43 58 70 140 61 189 -10 52 -68 108
-141 136 -51 20 -79 24 -187 24 -71 1 -128 4 -128 9 0 12 39 24 105 31 122 15
413 67 505 91 277 73 452 181 535 330 90 163 87 325 -9 432 -83 92 -205 139
-388 150 l-108 6 0 71 c0 185 -101 381 -417 804 -130 174 -233 281 -318 332
-263 156 -623 42 -967 -307 -96 -97 -217 -241 -258 -308 -21 -34 -40 -46 -40
-25 0 5 38 64 84 132 335 493 516 876 516 1093 0 117 -59 243 -142 307 -52 39
-147 84 -223 104 -96 26 -326 26 -442 1 -384 -83 -728 -325 -834 -589 -34 -84
-31 -186 8 -269 17 -35 53 -94 80 -132 72 -97 283 -326 465 -502 86 -84 154
-155 151 -158 -3 -4 -49 32 -102 80 -316 282 -535 374 -755 317 -129 -33 -269
-136 -346 -256 l-37 -57 -6 82 c-12 165 -63 289 -159 392 -93 100 -184 144
-343 166 -121 17 -373 -11 -587 -66 -16 -4 -28 -3 -28 2 0 6 91 33 203 62 381
96 668 194 782 266 154 98 199 273 135 526 -135 526 -691 977 -1078 873z
m-262 -2431 c42 -327 112 -550 221 -709 24 -35 36 -74 63 -211 56 -275 129
-760 117 -768 -4 -2 -44 -13 -90 -25 -178 -45 -326 -116 -407 -196 -63 -61
-68 -81 -68 -244 0 -91 6 -138 27 -223 15 -60 27 -123 27 -140 -1 -30 -2 -28
-32 28 -45 83 -156 192 -240 233 -109 53 -201 72 -357 72 -148 0 -321 -29
-414 -69 -64 -28 -70 -27 -102 12 -15 17 -89 98 -165 178 l-139 146 55 12
c227 51 362 347 352 774 -2 81 -3 147 -2 147 0 0 27 -9 60 -20 79 -28 212 -50
293 -50 97 0 195 24 287 70 265 130 431 515 460 1065 6 115 9 125 21 102 7
-14 22 -97 33 -184z m1242 -334 c-6 -230 42 -507 113 -657 58 -122 184 -232
267 -232 15 0 28 -3 28 -7 0 -5 -23 -35 -51 -68 -72 -85 -268 -330 -313 -391
l-38 -51 -53 18 c-30 10 -76 21 -102 24 -26 4 -75 14 -108 23 -61 16 -293 23
-420 12 l-59 -5 -13 110 c-18 154 -50 375 -79 544 -14 79 -24 145 -22 146 2 2
30 -4 63 -12 190 -48 398 88 630 412 35 50 85 127 110 173 26 45 48 82 48 82
1 0 1 -54 -1 -121z m-3121 -51 c24 -40 45 -76 47 -79 2 -4 -19 -10 -45 -14
-115 -16 -298 -112 -482 -250 -123 -94 -131 -99 -131 -88 0 5 44 44 98 88 111
91 333 289 407 364 28 27 53 50 56 51 4 0 26 -33 50 -72z m4958 3 c120 -99
356 -250 504 -322 44 -21 82 -41 85 -43 3 -3 -26 -3 -64 1 -63 5 -76 11 -149
62 -176 122 -427 314 -433 332 -7 18 11 8 57 -30z m-563 -238 c-27 -54 -75
-161 -106 -237 l-57 -139 -104 -37 c-220 -79 -306 -125 -406 -214 -57 -51 -93
-115 -93 -165 0 -121 187 -227 465 -262 55 -6 103 -15 106 -18 4 -3 10 -16 14
-28 6 -22 5 -23 -72 -23 -158 0 -590 -21 -643 -31 -30 -6 -90 -25 -133 -41
l-77 -30 -35 30 -34 30 91 114 c106 132 155 190 295 350 82 93 115 122 161
146 33 16 85 46 118 67 87 57 306 282 409 420 82 109 130 164 146 165 3 0 -17
-44 -45 -97z m1427 -229 c43 -13 106 -28 140 -35 34 -6 68 -13 75 -15 15 -4
-115 -154 -133 -154 -5 0 -38 18 -72 40 -56 36 -62 43 -68 82 -4 24 -18 61
-32 82 -22 33 -23 38 -7 31 11 -4 54 -18 97 -31z m-793 -1279 c0 -2 -18 -32
-39 -65 -61 -94 -93 -187 -90 -262 2 -60 0 -67 -56 -163 -155 -268 -310 -492
-521 -756 -121 -151 -376 -442 -435 -496 -13 -12 -101 -67 -196 -122 -340
-199 -587 -357 -841 -540 -63 -44 -115 -81 -117 -81 -1 0 5 28 14 63 12 47 16
113 16 267 0 190 -2 213 -27 312 -49 193 -129 380 -248 581 -56 95 -63 134
-27 141 211 44 360 104 517 209 73 49 272 239 341 325 l34 44 80 -17 c111 -25
349 -25 470 -2 149 29 312 86 460 162 172 87 305 175 461 304 108 90 123 99
162 100 23 1 42 -1 42 -4z m1113 -129 c-189 -200 -266 -320 -267 -418 -1 -49
3 -61 28 -87 16 -17 52 -38 79 -47 37 -12 46 -19 35 -25 -8 -5 -138 -64 -289
-133 -547 -247 -1154 -542 -1517 -736 -111 -58 -113 -59 -85 -27 15 19 76 90
134 158 205 242 372 466 583 787 l127 192 82 -6 c143 -10 344 33 561 122 121
50 448 213 536 268 30 19 59 35 64 35 4 1 -27 -37 -71 -83z m-3153 -45 l0 -50
-57 -6 c-32 -3 -75 -8 -96 -11 l-38 -4 18 31 c24 41 31 46 94 68 78 28 79 28
79 -28z m-310 -70 c0 -16 -25 -27 -110 -50 -47 -13 -94 -26 -105 -29 -51 -13
3 14 97 48 113 43 118 44 118 31z m-335 -120 c-12 -10 -137 -52 -142 -47 -4 4
125 55 142 55 6 1 6 -2 0 -8z m-976 -325 c-10 -10 -201 -67 -207 -62 -9 9 -2
12 98 39 98 26 116 30 109 23z m565 -151 c56 -114 121 -186 203 -224 l51 -24
-35 -76 c-98 -211 -189 -456 -249 -665 -24 -88 -29 -97 -38 -75 -36 88 -156
330 -216 435 l-72 125 29 22 c81 63 179 192 211 279 26 69 45 191 41 256 -6
80 18 63 75 -53z m370 -348 l26 -34 -15 -119 c-33 -254 -106 -577 -178 -789
-55 -161 -111 -292 -115 -270 -2 11 -19 78 -38 148 -33 119 -34 132 -24 185
34 167 113 429 187 617 55 139 123 295 129 295 2 0 14 -15 28 -33z m203 -333
c102 -216 147 -412 147 -649 0 -247 -38 -417 -107 -473 -104 -87 -313 -271
-381 -336 -43 -42 -79 -76 -80 -76 0 0 -2 62 -4 138 -1 75 -7 175 -12 221 l-9
83 48 107 c150 329 232 625 307 1110 l5 34 21 -34 c12 -19 41 -75 65 -125z
m1101 -502 c-194 -184 -294 -269 -493 -420 -119 -89 -507 -353 -512 -348 -2 1
21 46 50 99 46 84 61 103 127 154 108 85 278 208 405 293 123 83 505 318 518
319 5 1 -38 -43 -95 -97z m-1678 -493 l13 -87 -32 -53 -32 -54 5 65 c3 36 8
105 12 154 8 102 17 96 34 -25z m533 -326 c-27 -41 -55 -68 -98 -94 -33 -20
-61 -36 -63 -34 -1 1 42 45 95 98 54 53 99 94 101 92 2 -2 -14 -30 -35 -62z
m-493 -135 l0 -173 -39 -22 -38 -22 -7 61 c-3 33 -6 90 -6 126 0 59 4 73 40
134 23 37 43 68 45 68 3 0 5 -78 5 -172z m272 -155 c-39 -43 -94 -100 -122
-128 l-52 -50 7 50 c10 70 46 111 146 166 46 25 86 45 88 43 2 -2 -28 -38 -67
-81z"/>
</g>
</svg>
